<svg width="30" height="30" viewBox="0 0 30 30" fill="none" xmlns="http://www.w3.org/2000/svg">
<path d="M15 0C12.0333 0 9.13319 0.879735 6.66645 2.52796C4.19971 4.17618 2.27713 6.51886 1.14181 9.25975C0.00649927 12.0006 -0.290551 15.0166 0.288228 17.9264C0.867006 20.8361 2.29562 23.5088 4.3934 25.6066C6.49119 27.7044 9.16394 29.133 12.0736 29.7118C14.9834 30.2906 17.9994 29.9935 20.7403 28.8582C23.4811 27.7229 25.8238 25.8003 27.472 23.3335C29.1203 20.8668 30 17.9667 30 15C29.9954 11.0232 28.4136 7.21052 25.6015 4.39847C22.7895 1.58642 18.9768 0.00459636 15 0V0ZM20.7692 16.1538H12.0162L14.9414 19.079C15.0487 19.1861 15.1339 19.3133 15.192 19.4533C15.2502 19.5934 15.2801 19.7435 15.2802 19.8951C15.2803 20.0467 15.2505 20.1968 15.1925 20.3369C15.1345 20.477 15.0495 20.6043 14.9423 20.7115C14.8351 20.8187 14.7078 20.9037 14.5677 20.9617C14.4276 21.0197 14.2775 21.0495 14.1259 21.0494C13.9742 21.0493 13.8241 21.0194 13.6841 20.9612C13.5441 20.9031 13.4169 20.818 13.3098 20.7106L8.41638 15.8172C8.20002 15.6003 8.07852 15.3064 8.07852 15C8.07852 14.6936 8.20002 14.3997 8.41638 14.1828L13.3098 9.28936C13.5262 9.07338 13.8196 8.95215 14.1254 8.95231C14.4311 8.95248 14.7243 9.07402 14.9405 9.29023C15.1568 9.50645 15.2783 9.79965 15.2785 10.1054C15.2786 10.4112 15.1574 10.7045 14.9414 10.921L12.0162 13.8462H20.7692C21.0753 13.8462 21.3687 13.9677 21.5851 14.1841C21.8015 14.4005 21.9231 14.694 21.9231 15C21.9231 15.306 21.8015 15.5995 21.5851 15.8159C21.3687 16.0323 21.0753 16.1538 20.7692 16.1538Z" fill="#4A2C2C"/>
</svg>
