<svg width="31" height="31" viewBox="0 0 31 31" fill="none" xmlns="http://www.w3.org/2000/svg">
<path d="M28.5426 14.5577C29.4671 9.31081 29.6309 1.58019 28.5426 0.876469C27.4542 0.173607 19.8564 2.78842 18.2679 6.27772C17.4011 6.04746 15.6065 5.93362 15.6065 5.93362C15.6065 5.93362 13.8696 6.04746 13.0037 6.27772C11.4152 2.78842 3.75787 0.173607 2.67037 0.876469C1.58202 1.58019 1.74415 9.31081 2.67037 14.5577C2.67037 14.5577 1.83643 16.2644 1.83643 22.2762L15.6349 18.8551V18.1332L29.4334 22.3047C29.4334 16.2644 28.5426 14.5577 28.5426 14.5577Z" fill="#FFCB4E"/>
<path d="M20.7343 16.5257C18.9362 16.5257 17.0493 16.9371 15.6349 17.6304C14.2214 16.9371 12.3345 16.5257 10.5364 16.5257C1.97096 16.5257 1.83643 20.924 1.83643 22.2728C1.83643 23.6173 3.53278 30.9253 15.6065 30.9253C27.6802 30.9253 29.4334 23.6457 29.4334 22.3012C29.4334 20.9524 29.2989 16.5257 20.7343 16.5257Z" fill="#FFD882"/>
<path d="M20.2686 6.84259C22.14 4.78748 26.0304 3.24463 26.8289 3.4404C27.4775 3.59649 27.3766 8.94773 26.8565 12.0101C24.6462 8.3449 20.2686 6.84259 20.2686 6.84259Z" fill="#F28F20"/>
<path d="M11.0012 6.84259C9.13153 4.78748 5.24035 3.24463 4.44262 3.4404C3.79237 3.59649 3.89327 8.94773 4.41503 12.0101C6.62537 8.3449 11.0012 6.84259 11.0012 6.84259Z" fill="#F28F20"/>
<path d="M19.0906 17.1449C19.0906 13.0976 17.5305 5.93358 15.6065 5.93358C13.6825 5.93358 12.1224 13.0976 12.1224 17.1449C12.1224 21.1939 13.6825 18.8697 15.6065 18.8697C17.5305 18.8697 19.0906 21.1939 19.0906 17.1449Z" fill="#FAAA35"/>
<path d="M13.0365 14.5569C13.0365 15.5098 12.2569 16.2817 11.2944 16.2817C10.3328 16.2817 9.55322 15.5098 9.55322 14.5569C9.55322 13.6048 10.3328 12.8338 11.2944 12.8338C12.2569 12.8338 13.0365 13.6048 13.0365 14.5569Z" fill="#2A2F33"/>
<path d="M21.6778 14.5577C21.6778 15.5106 20.8982 16.2825 19.9358 16.2825C18.9742 16.2825 18.1946 15.5106 18.1946 14.5577C18.1946 13.6056 18.9742 12.8346 19.9358 12.8346C20.8982 12.8346 21.6778 13.6056 21.6778 14.5577Z" fill="#2A2F33"/>
<path d="M15.6237 24.7988C15.1468 24.7988 14.7613 24.4133 14.7613 23.9364V21.4569C14.7613 20.98 15.1468 20.5945 15.6237 20.5945C16.1006 20.5945 16.4861 20.98 16.4861 21.4569V23.9364C16.4861 24.4133 16.1006 24.7988 15.6237 24.7988Z" fill="#F28F20"/>
<path d="M19.1164 26.7021C15.6651 26.7021 14.8415 24.321 14.8036 24.2046C14.6552 23.7518 14.9019 23.2645 15.3555 23.1171C15.8065 22.9687 16.2852 23.2111 16.4387 23.6552C16.4758 23.7552 17.1941 25.4982 20.611 24.8151C21.0827 24.7186 21.5338 25.0256 21.6261 25.4921C21.7201 25.9596 21.4165 26.4132 20.9499 26.5063C20.2695 26.6434 19.6606 26.7021 19.1164 26.7021Z" fill="#F28F20"/>
<path d="M12.0965 26.7021C11.5515 26.7021 10.9435 26.6434 10.2622 26.5063C9.79561 26.4132 9.49205 25.9596 9.58605 25.4921C9.67833 25.0256 10.1285 24.7177 10.6011 24.8151C14.0525 25.5033 14.782 23.7199 14.8114 23.6431C14.9804 23.205 15.4728 22.973 15.9135 23.1334C16.3542 23.2939 16.5905 23.7699 16.4396 24.2132C16.3999 24.3305 15.5479 26.7021 12.0965 26.7021Z" fill="#F28F20"/>
<path d="M19.0733 18.5178C19.0733 20.0339 16.2998 21.9493 15.6065 21.9493C14.9148 21.9493 12.1404 20.0339 12.1404 18.5178C12.1404 17 14.0757 17.1449 15.6065 17.1449C17.1381 17.1449 19.0733 17 19.0733 18.5178Z" fill="#292F33"/>
<path d="M29.4239 27.4377C29.185 27.4377 28.947 27.3386 28.7763 27.1454C28.7504 27.1152 26.0329 24.1252 19.7986 23.1576C19.3277 23.0843 19.0052 22.6436 19.0785 22.1736C19.1518 21.7027 19.5934 21.3837 20.0634 21.4535C20.379 21.5018 20.6869 21.5561 20.9879 21.6139C27.2334 22.8247 29.956 25.8742 30.0742 26.0087C30.3864 26.3675 30.3493 26.9125 29.9905 27.2256C29.8275 27.3679 29.6249 27.4377 29.4239 27.4377Z" fill="#F39120"/>
<path d="M19.9306 23.1671C19.5804 23.1671 19.2501 22.9515 19.1216 22.6039C18.9561 22.1563 19.1855 21.6604 19.6313 21.4957C24.3547 19.7502 30.1191 21.3327 30.3692 21.4017C30.828 21.5302 31.0953 22.0045 30.9685 22.4633C30.8418 22.9221 30.3674 23.1895 29.9078 23.0644C29.8526 23.0489 24.4246 21.5647 20.2298 23.1136C20.1307 23.1498 20.0298 23.1671 19.9306 23.1671Z" fill="#F39120"/>
<path d="M1.79762 27.4377C2.0365 27.4377 2.27453 27.3386 2.44528 27.1454C2.47116 27.1152 5.1886 24.1252 11.4229 23.1576C11.8938 23.0843 12.2164 22.6436 12.143 22.1736C12.0697 21.7027 11.6282 21.3837 11.1582 21.4535C10.8425 21.5018 10.5347 21.5561 10.2337 21.6139C3.98813 22.8247 1.26551 25.8742 1.14736 26.0087C0.83517 26.3675 0.872254 26.9125 1.23102 27.2256C1.39401 27.3679 1.59668 27.4377 1.79762 27.4377Z" fill="#F39120"/>
<path d="M11.291 23.1671C11.6411 23.1671 11.9714 22.9515 12.0999 22.6039C12.2655 22.1563 12.0361 21.6604 11.5902 21.4957C6.86684 19.7502 1.10251 21.3327 0.852414 21.4017C0.393614 21.5302 0.126268 22.0045 0.253042 22.4633C0.379815 22.9221 0.854139 23.1895 1.3138 23.0644C1.369 23.0489 6.79698 21.5647 10.9917 23.1136C11.0909 23.1498 11.1918 23.1671 11.291 23.1671Z" fill="#F39120"/>
</svg>
