<svg width="30" height="30" viewBox="0 0 30 30" fill="none" xmlns="http://www.w3.org/2000/svg">
<path d="M15 0C12.0333 0 9.13319 0.879735 6.66645 2.52796C4.19971 4.17618 2.27713 6.51886 1.14181 9.25975C0.00649927 12.0006 -0.290551 15.0166 0.288228 17.9264C0.867006 20.8361 2.29562 23.5088 4.3934 25.6066C6.49119 27.7044 9.16394 29.133 12.0736 29.7118C14.9834 30.2906 17.9994 29.9935 20.7403 28.8582C23.4811 27.7229 25.8238 25.8003 27.472 23.3335C29.1203 20.8668 30 17.9667 30 15C29.9954 11.0232 28.4136 7.21052 25.6015 4.39847C22.7895 1.58642 18.9768 0.00459636 15 0V0ZM22.1439 12.3734L13.6816 20.4503C13.4665 20.6551 13.1809 20.7692 12.8839 20.7692C12.5869 20.7692 12.3013 20.6551 12.0861 20.4503L7.85607 16.4119C7.63508 16.2002 7.50715 15.9094 7.50037 15.6035C7.4936 15.2975 7.60854 15.0014 7.81995 14.7802C8.03136 14.5589 8.32195 14.4306 8.62788 14.4234C8.93382 14.4163 9.2301 14.5308 9.45163 14.742L12.8839 18.0198L20.5484 10.7035C20.7699 10.4924 21.0662 10.3778 21.3721 10.385C21.6781 10.3921 21.9686 10.5204 22.1801 10.7417C22.3915 10.963 22.5064 11.2591 22.4996 11.565C22.4929 11.871 22.3649 12.1617 22.1439 12.3734V12.3734Z" fill="#42B64D"/>
</svg>
