<svg width="32" height="30" viewBox="0 0 32 30" fill="none" xmlns="http://www.w3.org/2000/svg">
<path d="M31.749 12.2278C31.6899 11.897 31.5566 11.5835 31.359 11.3102C31.1614 11.0369 30.9044 10.8108 30.6069 10.6483L27.6756 9.04057C27.4878 8.68069 27.2823 8.32852 27.0614 7.98773L27.1179 4.67272C27.1245 4.33729 27.055 4.00464 26.9146 3.69918C26.7742 3.39372 26.5663 3.12318 26.3063 2.90742C24.8644 1.7075 23.2183 0.769997 21.4447 0.138535C21.1252 0.0237323 20.7837 -0.0190141 20.4453 0.0134262C20.1069 0.0458666 19.7802 0.152672 19.489 0.326022L16.6141 2.03035C16.2045 2.01112 15.793 2.01071 15.3842 2.02938L12.5067 0.323611C12.216 0.150155 11.8897 0.0432105 11.5517 0.0106244C11.2137 -0.0219618 10.8726 0.0206378 10.5534 0.135297C8.78065 0.769129 7.13583 1.70885 5.69552 2.91072C5.43516 3.1267 5.227 3.39747 5.08626 3.70322C4.94552 4.00896 4.87578 4.34193 4.88214 4.67775L4.93849 7.98973C4.71692 8.33052 4.51091 8.68242 4.32268 9.04168L1.38885 10.6507C1.09091 10.8135 0.833632 11.0401 0.6359 11.314C0.438168 11.5878 0.304995 11.9019 0.246152 12.2332C-0.0836598 14.0653 -0.08203 15.9407 0.250965 17.7723C0.310104 18.103 0.443361 18.4165 0.640982 18.6898C0.838602 18.9631 1.09558 19.1893 1.39311 19.3517L4.32443 20.9595C4.51224 21.3194 4.7177 21.6715 4.93857 22.0123L4.88215 25.3273C4.87553 25.6628 4.94498 25.9954 5.08541 26.3009C5.22584 26.6063 5.43369 26.8769 5.69372 27.0926C7.13564 28.2925 8.78171 29.23 10.5553 29.8615C10.8748 29.9763 11.2163 30.0191 11.5547 29.9866C11.8931 29.9542 12.2198 29.8474 12.511 29.674L15.3859 27.9697C15.7955 27.989 16.207 27.9893 16.6158 27.9707L19.4933 29.6764C19.784 29.8499 20.1103 29.9568 20.4483 29.9894C20.7863 30.022 21.1274 29.9794 21.4466 29.8647C23.2194 29.2309 24.8642 28.2912 26.3045 27.0893C26.5648 26.8733 26.773 26.6026 26.9137 26.2968C27.0545 25.9911 27.1242 25.6581 27.1179 25.3223L27.0615 22.0103C27.2831 21.6695 27.4891 21.3176 27.6773 20.9584L30.6112 19.3493C30.9091 19.1865 31.1663 18.9599 31.3641 18.6861C31.5618 18.4122 31.695 18.0981 31.7538 17.7668C32.0837 15.9347 32.082 14.0593 31.749 12.2278ZM22.2839 15C22.2839 16.228 21.9153 17.4285 21.2248 18.4496C20.5342 19.4706 19.5527 20.2665 18.4044 20.7364C17.2561 21.2064 15.9925 21.3293 14.7734 21.0897C13.5543 20.8502 12.4346 20.2588 11.5557 19.3905C10.6768 18.5221 10.0782 17.4158 9.83576 16.2113C9.59327 15.0069 9.71772 13.7585 10.1934 12.6239C10.669 11.4894 11.4745 10.5197 12.508 9.83741C13.5415 9.15516 14.7565 8.791 15.9994 8.791C17.6656 8.79286 19.263 9.44762 20.4411 10.6116C21.6193 11.7756 22.282 13.3539 22.2839 15Z" fill="#4A2C2C"/>
</svg>
