<svg width="30" height="30" viewBox="0 0 30 30" fill="none" xmlns="http://www.w3.org/2000/svg">
<path d="M12.6316 24.4737V26.8421C12.6316 26.8421 12.6316 29.2105 15 29.2105C17.3684 29.2105 17.3684 26.8421 17.3684 26.8421V24.4737H12.6316Z" fill="#DD2E44"/>
<path d="M11.8421 2.3684C11.8745 -2.49147e-05 0.789459 0.789449 0.789459 8.68419C0.789459 11.8421 0.789459 19.7368 3.15788 19.7368C6.31578 19.7368 11.7987 5.52629 11.8421 2.3684Z" fill="#272B2B"/>
<path d="M18.1579 2.3684C18.1255 -2.49147e-05 29.2105 0.789449 29.2105 8.68419C29.2105 11.8421 29.2105 19.7368 26.8421 19.7368C23.6842 19.7368 18.2013 5.52629 18.1579 2.3684Z" fill="#272B2B"/>
<path d="M25.2631 18.1579C25.2631 23.6842 22.1052 23.6842 22.1052 23.6842H7.89471C7.89471 23.6842 4.73682 23.6842 4.73682 18.1579C4.73682 18.1579 5.52629 0.789466 15 0.789466C24.4737 0.789466 25.2631 18.1579 25.2631 18.1579Z" fill="#CCD6DD"/>
<path d="M18.9474 18.1776V18.1579H11.0526V18.1776C8.83973 18.3774 7.10526 20.235 7.10526 22.5C7.10526 24.8976 9.04894 26.8421 11.4474 26.8421C12.9174 26.8421 14.2145 26.1095 15 24.9916C15.7855 26.1095 17.0826 26.8421 18.5526 26.8421C20.951 26.8421 22.8947 24.8976 22.8947 22.5C22.8947 20.235 21.161 18.3774 18.9474 18.1776Z" fill="#8899A6"/>
<path d="M9.47366 13.421C9.47366 13.421 9.47366 11.8421 11.0526 11.8421C12.6316 11.8421 12.6316 13.421 12.6316 13.421V15C12.6316 15 12.6316 16.5789 11.0526 16.5789C9.47366 16.5789 9.47366 15 9.47366 15V13.421Z" fill="#272B2B"/>
<path d="M17.3684 13.421C17.3684 13.421 17.3684 11.8421 18.9474 11.8421C20.5263 11.8421 20.5263 13.421 20.5263 13.421V15C20.5263 15 20.5263 16.5789 18.9474 16.5789C17.3684 16.5789 17.3684 15 17.3684 15V13.421Z" fill="#272B2B"/>
<path d="M12.6315 19.7368C11.8421 20.5263 14.2105 22.8947 15 22.8947C15.7894 22.8947 18.1579 20.5263 17.3684 19.7368C16.5789 18.9473 13.421 18.9473 12.6315 19.7368Z" fill="#272B2B"/>
</svg>
