<svg width="30" height="30" viewBox="0 0 30 30" fill="none" xmlns="http://www.w3.org/2000/svg">
<path d="M29.2105 15C29.2105 22.8481 22.8481 29.2105 15 29.2105C7.1518 29.2105 0.789429 22.8481 0.789429 15C0.789429 7.15183 7.1518 0.789457 15 0.789457C22.8481 0.789457 29.2105 7.15183 29.2105 15Z" fill="#88C9F9"/>
<path d="M3.65287 6.35367C3.29682 4.04051 5.38576 3.07261 6.5005 2.82551C7.61524 2.57682 8.69208 2.33525 8.81603 2.82946C8.93918 3.32525 9.06155 3.98288 9.74208 3.73577C10.4226 3.48788 12.1444 3.29446 12.9497 2.6763C13.7542 2.05814 14.7213 2.05498 15.5266 2.30288C16.331 2.54998 18.5873 2.48209 18.0923 3.22419C17.5973 3.96709 16.6516 3.87709 16.1573 4.74314C15.6623 5.61077 16.2931 6.18472 16.9737 6.18472C17.6566 6.18472 18.3229 6.2913 18.7571 5.61077C19.1905 4.92946 18.4555 3.6663 19.0137 3.74998C19.571 3.83367 20.1797 4.43367 20.6163 5.36288C21.0481 6.2913 21.7279 5.73393 21.9766 6.2913C22.2237 6.84788 23.5871 7.90103 22.9058 7.71551C22.2237 7.52919 21.5431 7.40603 21.3576 8.08656C21.1713 8.76788 21.6647 9.44919 21.1713 9.38682C20.6763 9.32445 20.4916 9.45709 19.8094 9.38998C19.1289 9.32445 18.7571 8.89182 18.1997 9.82024C17.6431 10.7479 17.2097 11.3684 16.9626 11.801C16.7139 12.2345 16.3429 12.4808 16.5284 13.3484C16.7139 14.216 16.0326 13.9681 16.0326 13.2252C16.0326 12.4831 15.6 12.3584 15.0434 12.4816C14.486 12.6055 13.62 12.7287 13.6823 13.3484C13.7431 13.9673 13.4337 14.7102 13.9294 15.2052C14.4244 15.7018 14.9794 15.1452 15.2897 15.33C15.6 15.5171 16.4937 15.3481 16.1842 15.6584C15.8739 15.9671 14.7947 16.3539 15.4137 16.8497C16.0342 17.3439 16.6594 17.5042 16.9081 17.5658C17.1552 17.6289 16.9571 16.9547 17.7631 16.6452C18.566 16.3358 19.8221 15.6268 20.1316 16.1842C20.4402 16.7408 20.3984 16.6539 21.5131 16.7763C22.6263 16.8995 22.9263 17.2381 23.4213 18.2897C23.9163 19.3421 23.7734 19.2308 24.5755 19.5379C25.3816 19.8481 25.9002 19.7131 25.1573 20.3952C24.4144 21.0742 23.8539 21.0379 23.4213 21.8423C22.9871 22.6452 23.3005 23.2089 22.4344 24.0134C21.5676 24.8179 20.6644 25.4945 19.7368 26.0526C19.2489 26.3447 18.03 27.6868 17.3029 28.1581C16.6444 28.5852 16.4479 28.1581 16.4479 28.1581C16.4479 28.1581 16.65 26.8421 17.2089 26.2855C17.7647 25.7289 18.0813 23.6455 17.895 23.0266C17.7102 22.4084 16.8213 22.2213 16.5134 21.9742C16.2039 21.7279 15.3947 20.7521 15.3947 20.1316C15.3947 19.5126 16.7447 17.9139 16.7447 17.9139C16.9168 18.7729 15.9244 17.6542 15.4602 17.5002C15.0892 17.3763 14.2429 16.1929 13.5189 16.0681C12.7958 15.9426 12.4429 15.5155 11.8863 15.0813C11.3289 14.6479 9.96708 14.0297 10.0287 13.3484C10.091 12.6679 8.66682 12.1105 8.41971 12.1105C8.17182 12.1105 7.61524 12.1105 7.11945 11.2437C6.62445 10.3768 5.75761 9.50998 6.0055 8.89182C6.25261 8.27288 6.31497 7.5284 6.19024 6.84788C6.06708 6.16735 5.13866 5.91946 4.95313 6.10498C4.76761 6.2913 3.77761 7.15893 3.65287 6.35367Z" fill="#5C913B"/>
</svg>
