<svg width="56" height="56" viewBox="0 0 56 56" fill="none" xmlns="http://www.w3.org/2000/svg">
<g clip-path="url(#clip0_62_24)">
<path d="M44.6459 34.4525C44.2101 35.2073 43.5603 35.8159 42.7787 36.2013C41.997 36.5868 41.1186 36.7319 40.2545 36.6181C39.3904 36.5043 38.5794 36.1369 37.9241 35.5622C37.2689 34.9876 36.7987 34.2315 36.5731 33.3897C36.3476 32.5478 36.3767 31.658 36.6569 30.8327C36.937 30.0074 37.4556 29.2837 38.147 28.7531C38.8385 28.2225 39.6717 27.9089 40.5414 27.8519C41.4111 27.7949 42.2782 27.9971 43.033 28.4329C44.0441 29.0182 44.7818 29.9806 45.0842 31.1091C45.3865 32.2377 45.2289 33.44 44.6459 34.4525V34.4525ZM21.7483 21.2325C22.1841 20.4777 22.3862 19.6107 22.3292 18.741C22.2722 17.8713 21.9586 17.038 21.428 16.3466C20.8975 15.6551 20.1738 15.1365 19.3485 14.8564C18.5232 14.5762 17.6333 14.5471 16.7915 14.7727C15.9496 14.9983 15.1936 15.4684 14.6189 16.1237C14.0443 16.7789 13.6768 17.5899 13.5631 18.454C13.4493 19.3181 13.5943 20.1965 13.9798 20.9782C14.3653 21.7599 14.9739 22.4097 15.7287 22.8455C16.7411 23.4285 17.9435 23.5861 19.072 23.2837C20.2005 22.9813 21.163 22.2436 21.7483 21.2325V21.2325ZM26.048 20.0804C26.8028 20.5162 27.6698 20.7184 28.5395 20.6614C29.4092 20.6044 30.2425 20.2907 30.9339 19.7602C31.6254 19.2296 32.144 18.5059 32.4241 17.6806C32.7043 16.8553 32.7334 15.9655 32.5078 15.1236C32.2822 14.2818 31.8121 13.5257 31.1568 12.951C30.5016 12.3764 29.6906 12.0089 28.8265 11.8952C27.9624 11.7814 27.084 11.9265 26.3023 12.3119C25.5206 12.6974 24.8708 13.306 24.435 14.0608C23.852 15.0733 23.6944 16.2756 23.9968 17.4041C24.2992 18.5326 25.0369 19.4951 26.048 20.0804V20.0804ZM35.8613 25.7461C36.6161 26.1819 37.4831 26.3841 38.3528 26.3271C39.2225 26.27 40.0557 25.9564 40.7472 25.4259C41.4386 24.8953 41.9572 24.1716 42.2374 23.3463C42.5175 22.521 42.5467 21.6312 42.3211 20.7893C42.0955 19.9475 41.6254 19.1914 40.9701 18.6167C40.3148 18.0421 39.5039 17.6746 38.6398 17.5609C37.7757 17.4471 36.8973 17.5921 36.1156 17.9776C35.3339 18.3631 34.6841 18.9717 34.2483 19.7265C33.6653 20.739 33.5077 21.9413 33.8101 23.0698C34.1125 24.1983 34.8501 25.1608 35.8613 25.7461V25.7461ZM34.2207 35.8561C33.461 34.5938 33.2332 33.0817 33.5875 31.6517C33.945 30.1956 33.8203 28.6627 33.2321 27.2836C32.6438 25.9045 31.6238 24.7535 30.3253 24.0038C29.0269 23.254 27.5202 22.946 26.0316 23.1259C24.5431 23.3059 23.1532 23.9642 22.0709 25.0018C21.0119 26.0228 19.5911 26.5819 18.1204 26.5563C16.5049 26.5129 14.9345 27.0924 13.7344 28.1748C12.5344 29.2571 11.7964 30.7595 11.6733 32.3709C11.5503 33.9823 12.0515 35.5793 13.0733 36.8314C14.0952 38.0834 15.5593 38.8947 17.1626 39.0971C19.8037 39.4469 22.199 40.8275 23.8257 42.9373C24.7998 44.228 26.2331 45.0945 27.8287 45.3572C29.4243 45.6198 31.0597 45.2585 32.3962 44.3481C33.7326 43.4377 34.6675 42.0481 35.0072 40.4671C35.3469 38.8861 35.0652 37.235 34.2207 35.8561L34.2207 35.8561Z" fill="#4A2C2C"/>
</g>
<defs>
<clipPath id="clip0_62_24">
<rect width="40.2894" height="40.2894" fill="white" transform="translate(20.4336 0.846924) rotate(30)"/>
</clipPath>
</defs>
</svg>
