<svg width="25" height="25" viewBox="0 0 25 25" fill="none" xmlns="http://www.w3.org/2000/svg">
<path d="M6.73077 5.76923C6.73077 4.62819 7.06913 3.51277 7.70306 2.56402C8.33699 1.61528 9.23802 0.875818 10.2922 0.439159C11.3464 0.00249973 12.5064 -0.11175 13.6255 0.110857C14.7446 0.333464 15.7726 0.88293 16.5795 1.68977C17.3863 2.49661 17.9358 3.52459 18.1584 4.64371C18.381 5.76283 18.2667 6.92283 17.8301 7.97702C17.3934 9.03121 16.654 9.93224 15.7052 10.5662C14.7565 11.2001 13.641 11.5385 12.5 11.5385C10.9699 11.5385 9.50248 10.9306 8.42054 9.84869C7.3386 8.76675 6.73077 7.29933 6.73077 5.76923V5.76923ZM22.1154 25H2.88462C2.11957 25 1.38585 24.6961 0.844884 24.1551C0.303914 23.6141 0 22.8804 0 22.1154C0 19.8202 0.911742 17.6191 2.53465 15.9962C4.15756 14.3733 6.3587 13.4615 8.65385 13.4615H16.3462C18.6413 13.4615 20.8424 14.3733 22.4653 15.9962C24.0883 17.6191 25 19.8202 25 22.1154C25 22.8804 24.6961 23.6141 24.1551 24.1551C23.6141 24.6961 22.8804 25 22.1154 25Z" fill="#4A2C2C"/>
</svg>
