<svg width="33" height="30" viewBox="0 0 33 30" fill="none" xmlns="http://www.w3.org/2000/svg">
<path d="M32.524 24.5963L19.5611 1.79538C19.2501 1.24933 18.8037 0.796053 18.2664 0.480955C17.7292 0.165856 17.12 0 16.5 0C15.88 0 15.2708 0.165856 14.7336 0.480955C14.1963 0.796053 13.7499 1.24933 13.4389 1.79538V1.79655L0.476004 24.5963C0.164776 25.1434 0.000602759 25.7644 1.6566e-06 26.3966C-0.000599446 27.0289 0.162393 27.6502 0.47258 28.198C0.782766 28.7457 1.2292 29.2007 1.76697 29.517C2.30474 29.8334 2.91488 29.9999 3.53598 30H29.464C30.0851 29.9999 30.6953 29.8334 31.233 29.517C31.7708 29.2007 32.2172 28.7457 32.5274 28.198C32.8376 27.6502 33.0006 27.0289 33 26.3966C32.9994 25.7644 32.8352 25.1434 32.524 24.5963V24.5963ZM15.32 12.0005C15.32 11.6822 15.4442 11.377 15.6653 11.1519C15.8863 10.9269 16.1862 10.8004 16.4988 10.8004C16.8115 10.8004 17.1113 10.9269 17.3324 11.1519C17.5535 11.377 17.6777 11.6822 17.6777 12.0005V18.0007C17.6777 18.319 17.5535 18.6242 17.3324 18.8493C17.1113 19.0743 16.8115 19.2007 16.4988 19.2007C16.1862 19.2007 15.8863 19.0743 15.6653 18.8493C15.4442 18.6242 15.32 18.319 15.32 18.0007V12.0005ZM16.4997 25.2014C16.15 25.2014 15.8081 25.0958 15.5173 24.8981C15.2265 24.7003 14.9999 24.4191 14.866 24.0902C14.7322 23.7613 14.6972 23.3994 14.7654 23.0502C14.8336 22.701 15.002 22.3803 15.2493 22.1285C15.4966 21.8768 15.8117 21.7053 16.1547 21.6359C16.4977 21.5664 16.8533 21.6021 17.1764 21.7383C17.4995 21.8745 17.7757 22.1053 17.97 22.4013C18.1643 22.6973 18.268 23.0453 18.268 23.4013C18.268 23.8787 18.0817 24.3366 17.7501 24.6742C17.4184 25.0117 16.9687 25.2014 16.4997 25.2014V25.2014Z" fill="white"/>
</svg>
